<svg xmlns="http://www.w3.org/2000/svg" version="1.1" xmlns:xlink="http://www.w3.org/1999/xlink" viewBox="0 0 1422 800" style="overflow: hidden; display: block;" width="1422" height="800"><defs></defs><g id="two-0" transform="matrix(1 0 0 1 0 0)" opacity="1"></g><path d="M 31.748708204471132 709.8856471303197 Q 31.748708204471132 709.8856471303197 23.678709134162364 703.2184548678413 15.608710063853596 696.5512626053629 19.53139609491747 681.6395511760397 23.45408212598134 666.7278397467167 28.549895456269994 650.3327181259531 33.64570878655864 633.9375965051894 38.77572707803018 617.8668633978259 43.905745369501716 601.7961302904624 50.050140077403555 585.2202732166459 56.1945347853054 568.6444161428294 62.010526411577246 551.3181875372247 67.8265180378491 533.9919589316199 72.88444386099799 516.6287301010047 77.94236968414688 499.26550127038945 81.01269823821566 485.5539325659827 84.08302679228444 471.84236386157596 87.96612668026185 456.72142048660885 91.84922656823927 441.60047711164174 96.83361447845536 426.7459395921441 101.81800238867146 411.8914020726465 105.67662691549913 398.0629610627227 109.53525144232681 384.23452005279887 113.81460232928052 370.347687148638 118.09395321623421 356.46085424447716 121.94636081873864 343.3654937086407 125.79876842124308 330.27013317280426 129.8956418327243 317.3659137979567 133.99251524420552 304.4616944231091 139.54744418465026 287.2730966401465 145.10237312509503 270.0844988571838 148.20867531250062 257.0813928511044 151.3149774999062 244.07828684502493 156.00375016703902 228.9158441007389 160.6925228341718 213.75340135645285 173.57407289532716 209.83084470294375 186.45562295648256 205.90828804943467 197.35832168601968 216.69895467811472 208.26102041555683 227.48962130679473 213.59545774496473 241.42078477729257 218.92989507437264 255.35194824779043 223.82238475816996 272.3597697241521 228.71487444196728 289.3675912005138 233.17724078101116 306.0755578954049 237.63960712005505 322.78352459029605 240.41413832742083 334.8811458322207 243.1886695347866 346.97876707414525 246.79283820237094 364.8252103885678 250.39700686995525 382.67165370299034 253.17996038856927 395.4187485437701 255.9629139071833 408.1658433845499 260.2465210428961 425.1640721740813 264.53012817860895 442.1623009636128 267.91216657360826 454.97251884572177 271.29420496860763 467.7827367278307 275.15155783049954 480.41880231201105 279.0089106923915 493.0548678961914 283.9735137484145 506.6680387956693 288.9381168044375 520.2812096951471 272.6736256441638 521.8583315782373 256.40913448389006 523.4354534613275 257.606734419253 510.1326117504856 258.8043343546159 496.8297700396437 260.45473415789024 483.8423094381907 262.10513396116465 470.8548488367377 263.97140255016006 457.280043345323 265.8376711391555 443.70523785390833 267.7236260001258 430.19653681688646 269.6095808610962 416.6878357798646 271.39718362826636 402.9874865387131 273.1847863954365 389.28713729756157 276.19472911486685 375.2688600900061 279.2046718342972 361.2505828824507 281.90192745868677 348.8096036662763 284.59918308307635 336.36862445010183 288.45621085345874 319.63179267253247 292.31323862384113 302.8949608949631 296.2031132178247 287.3513074639658 300.0929878118083 271.8076540329684 303.6663349169146 257.9637613058326 307.23968202202093 244.11986857869678 311.42779473128724 231.21346785481643 315.6159074405536 218.30706713093605 327.2810068131225 205.37846680662688 338.94610618569135 192.4498664823177 353.0140245265413 197.16482696887454 367.0819428673912 201.8797874554314 374.53888633950885 217.9277039715227 381.9958298116265 233.97562048761404 385.4248837342285 248.5701693622684 388.8539376568305 263.16471823692274 391.56096836278596 280.42255390438197 394.26799906874146 297.6803895718412 397.8316094872973 317.5907275192725 401.39521990585314 337.50106546670384 406.0898672218991 359.88988597903995 410.7845145379451 382.278706491376 416.17441938034733 404.0618618565953 421.56432422274963 425.84501722181466 428.0991849866084 446.25576740832287 434.63404575046724 466.66651759483113 440.8167817463169 484.7465929971039 446.9995177421665 502.8266683993766 453.05478042570064 519.2464933181919 459.1100431092348 535.6663182370072 463.14767239084483 551.1660013391233 467.1853016724549 566.6656844412395 471.0183605168822 578.9889998810505 474.85141936130947 591.3123153208616 479.6393568360513 605.3700608840852 484.4272943107931 619.427806447309 485.7187268687044 623.0941119966647 487.01015942661564 626.7604175460203 487.42388273814447 629.6485333030389 487.83760604967324 632.5366490600575 487.3074627977706 635.4056781182762 486.77731954586795 638.2747071764949 485.3588158689523 640.8242614361682 483.94031219203663 643.3738156958414 481.78196579952964 645.3369561529644 479.6236194070226 647.3000966100874 476.95140973596784 648.4712819405806 474.2792000649131 649.6424672710739 471.3729081732648 649.8990740616719 468.4666162816166 650.1556808522698 465.630531697617 649.4708423042593 462.7944471136175 648.7860037562488 460.32550864186493 647.2314226463862 457.8565701701124 645.6768415365237 456.0132763203358 643.4152829173813 454.16998247055926 641.153724298239 453.1453265954126 638.4219739542345 452.120670720266 635.69022361023 452.02193456035997 632.7742965234927 451.92319840045394 629.8583694367554 452.76071965779454 627.0635639429968 453.5982409151352 624.268758449238 455.2843308929947 621.8876914214114 456.97042087085424 619.5066243935848 459.3285455034663 617.7885941780445 461.6866701360783 616.0705639625041 464.4699331519239 615.195448776333 467.2531961677695 614.3203335901619 470.17018919437953 614.3797582243601 473.0871822209896 614.4391828585583 475.8324953184666 615.4269255382387 478.57780841594365 616.414668217919 480.8640065782896 618.2273120237803 483.1502047406355 620.0399558296416 484.737922416755 622.4877164767186 486.3256400928745 624.9354771237956 487.048642822961 627.7620734261934 487.7716455530476 630.5886697285912 487.55423476040704 633.4981563072996 487.33682396776646 636.407642886008 486.20176261977906 639.0953957282065 485.06670127179166 641.783148570405 483.13283059121886 643.9677592440175 481.198959910646 646.1523699176302 478.66875666823597 647.6051091084483 476.13855342582593 649.0578482992665 473.2769305689678 649.6266138305257 470.4153077121098 650.195379361785 467.52187790931174 649.8206213322228 464.6284481065137 649.4458633026607 462.0061542219199 648.1668189768989 459.3838603373262 646.8877746511371 457.3072572328721 644.8383603077177 455.23065412841794 642.7889459642985 453.9171626973098 640.1837358259706 452.60367126620156 637.5785256876427 452.6044826243183 637.581106174274 452.60529398243494 637.5836866609054 451.6029401369061 633.9585341738427 450.6005862913773 630.3333816867801 446.5322935424232 615.53678909723 442.46400079346904 600.74019650768 438.9387752544111 587.182217968212 435.41354971535316 573.6242394287439 432.5643440226328 559.8847847215272 429.71513832991246 546.1453300143106 424.0889008014577 529.4237474961146 418.46266327300305 512.7021649779188 412.4930092099605 494.1256519248761 406.52335514691805 475.5491388718334 399.65065428657067 454.71949457608343 392.77795342622323 433.8898502803334 386.46487922106974 411.7650647521917 380.1518050159163 389.64027922404995 373.9109440767628 367.22876813520986 367.6700831376093 344.8172570463697 362.6414354212211 324.5595324075955 357.61278770483295 304.30180776882133 354.1970317576894 288.05181506578407 350.78127581054576 271.8018223627468 350.1814313361416 255.26786217074283 349.58158686173743 238.73390197873888 345.62500067124955 250.8103216608356 341.66841448076167 262.8867413429323 337.770210943636 277.3174651859523 333.8720074065103 291.7481890289723 330.0677719486963 307.0481970839759 326.2635364908823 322.34820513897944 322.23064035287234 339.2058396529955 318.1977442148624 356.0634741670116 315.57474164726847 369.0187928387104 312.95173907967455 381.9741115104093 310.89821886736127 394.80320320371317 308.84469865504803 407.63229489701706 307.37051455436637 421.4170017021972 305.8963304536847 435.2017085073773 304.3175298901476 448.6654455142282 302.7387293266106 462.12918252107914 301.3147936114687 475.4274671088552 299.8908578963268 488.7257516966312 298.5369860201152 501.0324834114565 297.1831141439036 513.3392151262817 293.47067989533826 527.801299532267 289.75824564677293 542.2633839382523 268.92787648852203 533.3363143924455 248.09750733027116 524.4092448466388 243.66823021492075 510.31853559471233 239.23895309957032 496.2278263427858 235.26815974111747 482.7788154215188 231.29736638266462 469.3298045002518 228.48613855399745 454.86312359055654 225.67491072533028 440.3964426808613 222.20311281295176 428.29494990908194 218.73131490057324 416.1934571373026 215.97302134952395 404.12256667511707 213.21472779847466 392.05167621293157 210.00572387498107 378.5393050877385 206.79671995148746 365.0269339625455 203.49591964328346 349.4315100189558 200.19511933507945 333.83608607536615 195.40840985804078 316.79188718234843 190.6217003810021 299.7476882893307 186.2909309441147 285.0070620904419 181.9601615072273 270.266435891553 186.05561794059747 257.74326099020266 190.15107437396762 245.22008608885236 186.6908803251546 258.1343347035673 183.2306862763416 271.0485833182822 177.84337477442688 287.40058680918867 172.45606327251215 303.7525903000951 168.4162961442113 315.81616594720697 164.37652901591042 327.8797415943188 160.5008162303604 340.79335262059277 156.6251034448104 353.70696364686677 152.46419483571293 367.18262966299505 148.30328622661543 380.6582956791233 144.35247842652558 394.38167170868377 140.4016706264357 408.10504773824425 135.97320046302588 422.7182403008246 131.54473029961605 437.3314328634049 127.65252716341698 451.34654175661683 123.76032402721792 465.36165064982873 120.6799860924711 479.7343876438457 117.59964815772426 494.1071246378627 114.22625076618979 508.3123168404095 110.85285337465533 522.5175090429564 105.5744638518124 539.7132684384997 100.29607432896947 556.909027834043 96.27799492374952 569.3951207853911 92.25991551852957 581.8812137367393 86.21807699493009 598.4451915918698 80.1762384713306 615.0091694470003 75.25865779473682 630.397506755094 70.34107711814303 645.7858440631877 65.3846826409068 661.8330610390894 60.42828816367057 677.8802780149913 56.46439200095829 692.42760175999 52.50049583824601 706.9749255049886 42.134225115715566 708.4330058865532 31.767954393185118 709.8910862681178 31.758331298828125 709.8883666992188 Z" fill="hsl(0, 0%, 0%)"></path><path d="M 565.5576339769135 705.4302893273458 Q 565.5576339769135 705.4302893273458 557.129275317414 698.0388756424063 548.7009166579145 690.6474619574668 549.1182123738699 674.1404310659277 549.5355080898254 657.6334001743887 550.4810918045101 638.3164346925017 551.4266755191949 618.9994692106147 553.6494572542725 599.4374475870575 555.8722389893502 579.8754259635002 557.3053593888109 562.4416247827307 558.7384797882715 545.0078236019614 560.1725055695505 528.2952270677602 561.6065313508294 511.58263053355904 564.1435823814326 496.2552886005868 566.6806334120357 480.92794666761466 569.5439578520924 465.48051489829254 572.407282292149 450.03308312897036 576.1193598035362 434.98410317838074 579.8314373149234 419.9351232277911 583.5694583767217 405.22421633040506 587.3074794385202 390.513309433019 590.4758535795402 376.86686579846935 593.64422772056 363.22042216391975 595.7620817823445 351.85279475183927 597.8799358441289 340.4851673397588 598.8961286351238 337.7679568179732 599.9123214261186 335.0507462961875 601.7429525052953 332.8002639789663 603.5735835844719 330.54978166174516 606.0269853946008 329.00165364177116 608.4803872047297 327.45352562179716 611.2996879286552 326.76984131142774 614.1189886525808 326.08615700105827 617.0090067602848 326.33849832806425 619.8990248679889 326.59083965507017 622.5571747007043 327.7527864159023 625.2153245334196 328.91473317673444 627.3632971019773 330.86462923880947 629.5112696705351 332.81452530088455 630.9241716799977 335.3482160317807 632.3370736894603 337.88190676267686 632.8669739264672 340.7341140740399 633.3968741634739 343.5863213854029 632.9882919333302 346.4584184188235 632.5797097031864 349.3305154522441 631.2754236732434 351.9217928901631 629.9711376433004 354.5130703280821 627.9077069051913 356.55222073871863 625.8442761670822 358.59137114935515 623.2377424637798 359.86489494643206 620.6312087604774 361.138418743509 617.7544768587755 361.5129776492948 614.8777449570737 361.88753655508054 612.032009446464 361.3239141532655 609.1862739358544 360.7602917514504 606.669484075499 359.3174994562863 604.1526942151437 357.8747071611222 602.2283585677898 355.703805706773 600.3040229204358 353.5329042524238 599.1736199363365 350.8611875942222 598.0432169522373 348.1894709360206 597.8251001222254 345.2966685133449 597.6069832922134 342.4038660906693 598.3239895059683 339.5928550807995 599.0409957197231 336.78184407092965 600.6180542373934 334.3469380686338 602.1951127550636 331.912032066338 604.4671051335462 330.1081663728093 606.7390975120287 328.30430067928063 609.4681455495487 327.3203405088058 612.1971935870687 326.336380338331 615.097565233699 326.2753465804991 617.9979368803295 326.2143128226672 620.7659624590442 327.08259572803445 623.5339880377591 327.95087863340177 625.879854539779 329.6575687525719 628.225721041799 331.364258871742 629.9038156251141 333.7306652987154 631.5819102084292 336.0970717256888 632.4165359271924 338.87543108289077 633.2511616459556 341.65379044009273 633.1549329670925 344.5532077694086 633.0587042882294 347.45262509872435 633.0592268475652 347.4499866910713 633.059749406901 347.4473482834182 630.4823488457403 359.17506682956144 627.9049482845795 370.9027853757047 624.4427517537342 384.9370141178425 620.980555222889 398.9712428599803 617.1528435041655 413.5338738008825 613.3251317854418 428.09650474178466 609.5684355693862 442.69354739344175 605.8117393533306 457.29059004509884 602.8520954194599 472.47454232401833 599.8924514855893 487.65849460293776 597.211937425648 501.7683281167466 594.5314233657067 515.8781616305555 592.9413347798184 531.5097852385586 591.35124619393 547.1414088465616 589.8400492521591 565.3570306614388 588.3288523103882 583.5726524763159 586.5245487329405 601.9517887011887 584.7202451554928 620.3309249260615 584.3624164966252 639.3836157108882 584.0045878377576 658.4363064957149 583.7493695254684 675.1941786472978 583.4941512131792 691.9520507988808 574.5358855712578 698.6915447982675 565.5776199293365 705.4310387976542 565.567626953125 705.4306640625 Z" fill="hsl(0, 0%, 0%)"></path><path d="M 962.3049521849753 252.9840715984777 Q 962.3049521849753 252.9840715984777 960.323440377517 263.21136597392837 958.3419285700587 273.43866034937906 945.6531296660874 278.2096553469577 932.964330762116 282.98065034453623 917.257826338491 290.71522478941904 901.5513219148661 298.4497992343019 886.032052794227 308.3915000513306 870.5127836735877 318.3332008683592 857.1364799824485 330.3820923500235 843.7601762913092 342.4309838316878 833.8141009521366 357.9499956296131 823.868025612964 373.46900742753843 818.4631978124663 385.3268854525885 813.0583700119687 397.1847634776385 808.6784648333825 414.9497763011018 804.2985596547962 432.7147891245651 804.0859363084749 449.7243534030247 803.8733129621534 466.73391768148423 807.1176394802749 484.2413903237525 810.3619659983964 501.74886296602085 813.7832115207252 513.6833546084309 817.2044570430542 525.617846250841 821.7952139067827 538.1734045334911 826.3859707705113 550.7289628161411 832.6159885564773 562.0154581998709 838.8460063424433 573.3019535836007 846.3491944359704 583.6281262464424 853.8523825294975 593.9542989092841 863.2318965694699 602.6056632395321 872.6114106094421 611.2570275697801 884.6601521768042 618.1778141802727 896.7088937441663 625.0986007907652 912.432804094607 630.1624145610067 928.1567144450478 635.2262283312482 945.5144258442908 637.4018910274433 962.8721372435339 639.5775537236384 979.5102008092435 638.8186993376595 996.1482643749533 638.0598449516806 1011.897125843423 633.5673806539857 1027.645987311893 629.0749163562907 1044.125995867864 621.0499377213935 1060.6060044238352 613.0249590864963 1075.6862997548046 603.0588365625763 1090.766595085774 593.0927140386561 1103.1615409575645 582.7122542151847 1115.556486829355 572.3317943917133 1124.7959845797259 562.9254507820453 1134.0354823300966 553.5191071723773 1141.8345814876202 542.4809755830029 1149.6336806451436 531.4428439936283 1137.3911909274716 521.236812221456 1125.1487012097998 511.03078044928367 1110.6581131710113 505.71058279336995 1096.1675251322226 500.39038513745624 1080.6501047724294 496.41573725581816 1065.132684412636 492.4410893741801 1049.2111246395189 489.5867472311435 1033.2895648664014 486.73240508810693 1017.8059219103948 484.48624045185863 1002.3222789543881 482.24007581561034 988.9899899856125 480.81691609903544 975.6577010168368 479.3937563824605 959.6659050109192 478.25727522202885 943.6741090050016 477.1207940615972 940.8110811063746 476.39696868917576 937.9480532077476 475.67314331675436 935.4660308423333 474.073013042164 932.9840084769191 472.47288276757365 931.1428600415668 470.1639816529573 929.3017116062143 467.8550805383409 928.2942058281211 465.07915113988963 927.2867000500279 462.3032217414384 927.2183230501159 459.3509045999442 927.149946050204 456.39858745845004 928.0278569184139 453.57899095796347 928.9057677866239 450.7593944574769 930.638049023308 448.3677310959 932.3703302599922 445.9760677343231 934.775611562392 444.2627452969509 937.1808928647919 442.54942285957867 940.0073406456135 441.69382665787714 942.833788426435 440.8382304561756 945.7854728569166 440.9299416383184 948.7371572873981 441.0216528204612 951.5050362284992 442.0510692014685 954.2729151696003 443.0804855824759 956.5671909655387 444.9398269955168 958.8614667614769 446.7991684085577 960.4419281307876 449.2937613168683 962.0223895000984 451.788354225179 962.7235617202134 454.6570140927506 963.4247339403286 457.52567396032225 963.1732040947104 460.4680513417675 962.9216742490923 463.41042872321276 961.7437775789747 466.1184559299821 960.5658809088569 468.8264831367514 958.5849435065355 471.01662900544636 956.6040061042141 473.2067748741413 954.0274326386289 474.64973055416704 951.4508591730435 476.09268623419285 948.5484175661902 476.63737388494746 945.6459759593371 477.18206153570213 942.7215526136238 476.77145221636806 939.7971292679103 476.360842897034 937.1569120796058 475.0379275117358 934.5166948913013 473.7150121264376 932.4371152969708 471.61830026523177 930.3575357026402 469.5215884040259 929.0563262347657 466.87060635225885 927.7551167668913 464.21962430049183 927.3685144002453 461.29193057877484 926.9819120335993 458.36423685705785 927.5503941380227 455.4663617708908 928.1188762424462 452.5684866847238 929.5829225915411 450.00383852059315 931.0469689406361 447.43919035646246 933.2532934951819 445.476288454154 935.4596180497275 443.51338655184554 938.1772180464498 442.3577472586868 940.894818043172 441.202107965528 943.8391600450373 440.9747270205718 946.7835020469025 440.7473460756155 946.7807740382832 440.74711287113564 946.7780460296638 440.74687966665573 963.042992050385 442.4917580567112 979.3079380711064 444.2366364467667 993.2319310836144 445.9622824821903 1007.1559240961224 447.68792851761384 1022.9322159534892 449.92799807140796 1038.708507810856 452.16806762520207 1055.737011816504 454.9403240446818 1072.7655158221519 457.7125804641615 1090.0387447198984 461.68373369598413 1107.311973617645 465.6548869278068 1123.7989582786377 471.13582708376003 1140.2859429396306 476.6167672397133 1154.0104800514468 483.61783920495964 1167.7350171632634 490.618911170206 1176.750360261298 500.92079815458953 1185.7657033593327 511.22268513897313 1184.8825703602981 526.7559693067753 1183.9994373612635 542.2892534745775 1175.3079716322823 555.1357721590589 1166.616505903301 567.9822908435403 1157.3333028427146 577.4150664913554 1148.0500997821284 586.8478421391707 1135.8437154357055 597.2982915274983 1123.6373310892825 607.7487409158259 1108.3945021185243 619.0376870988877 1093.1516731477661 630.3266332819494 1075.295702753196 640.724145014 1057.4397323586263 651.1216567460505 1038.100932630533 658.8952199539293 1018.7621329024398 666.6687831618082 999.2034274619731 669.7720598690637 979.6447220215064 672.8753365763193 960.144273836 672.1512791415495 940.6438256504937 671.4272217067796 920.0922402824899 667.5772079793253 899.5406549144861 663.7271942518709 881.6118048761739 656.2428132216276 863.6829548378615 648.7584321913843 849.9655531356841 638.4458798472548 836.2481514335067 628.1333275031253 825.9600135002844 616.1826858017761 815.6718755670621 604.2320441004268 807.6741652529065 591.4714314955888 799.6764549387508 578.7108188907508 793.1263298162887 564.5223989879134 786.5762046938266 550.333979085076 782.0299578679208 536.6318562139368 777.483711042015 522.9297333427975 774.2788191816192 509.50243150953133 771.0739273212233 496.0751296762652 769.0571989489694 482.5184304145813 767.0404705767154 468.96173115289747 766.8782049181807 454.73999794699216 766.7159392596459 440.51826474108685 768.8635859434889 426.09262998627617 771.0112326273321 411.6669952314654 775.2580033807574 396.81830119913394 779.5047741341825 381.96960716680246 785.4644371043048 368.84053785865865 791.4241000744271 355.7114685505149 799.2519768704806 342.53241806711344 807.0798536665341 329.353367583712 816.8057057983938 317.8219173922391 826.5315579302536 306.29046720076616 837.5293199864586 296.97725344430853 848.5270820426637 287.66403968785085 860.0436336454793 279.71974949256264 871.5601852482948 271.7754592972744 883.1562871583899 265.1385049491622 894.752389068485 258.5015506010501 906.3092034744368 253.09002086025936 917.8660178803885 247.67849111946865 933.76281613954 242.03724882010337 949.6596143986914 236.3960065207381 955.9800044467017 244.68030217792708 962.3003944947122 252.96459783511605 962.3026733398438 252.97433471679688 Z" fill="hsl(0, 0%, 0%)"></path></svg>